<?xml version="1.0" standalone="no"?>
<!DOCTYPE svg PUBLIC "-//W3C//DTD SVG 20010904//EN"
 "http://www.w3.org/TR/2001/REC-SVG-20010904/DTD/svg10.dtd">
<svg version="1.0" xmlns="http://www.w3.org/2000/svg"
 width="1000.000000pt" height="1000.000000pt" viewBox="0 0 1000.000000 1000.000000"
 preserveAspectRatio="xMidYMid meet">
<metadata>
Created by potrace 1.11, written by Peter Selinger 2001-2013
</metadata>
<g transform="translate(0.000000,1000.000000) scale(0.100000,-0.100000)"
fill="#000000" stroke="none">
<path d="M10 8595 l0 -1395 1395 0 1395 0 0 1395 0 1395 -1395 0 -1395 0 0
-1395z m2390 5 l0 -1000 -1000 0 -1000 0 0 1000 0 1000 1000 0 1000 0 0 -1000z"/>
<path d="M800 8600 l0 -600 600 0 600 0 0 600 0 600 -600 0 -600 0 0 -600z"/>
<path d="M3200 9595 l0 -395 200 0 200 0 0 -200 0 -200 200 0 200 0 0 200 0
200 -200 0 -200 0 0 200 0 200 400 0 400 0 0 -200 0 -200 200 0 200 0 0 395 0
395 -800 0 -800 0 0 -395z"/>
<path d="M5590 9795 l0 -195 200 0 200 0 0 195 0 195 -200 0 -200 0 0 -195z"/>
<path d="M7190 8595 l0 -1395 1400 0 1400 0 0 1395 0 1395 -1400 0 -1400 0 0
-1395z m2400 5 l0 -1000 -1000 0 -1000 0 0 1000 0 1000 1000 0 1000 0 0 -1000z"/>
<path d="M7990 8600 l0 -600 600 0 600 0 0 600 0 600 -600 0 -600 0 0 -600z"/>
<path d="M5190 9000 l0 -200 -395 0 -395 0 0 -400 0 -400 -400 0 -400 0 0 200
0 200 -200 0 -200 0 0 -1000 0 -1000 400 0 400 0 0 400 0 400 200 0 200 0 0
400 0 400 200 0 200 0 0 -400 0 -400 195 0 195 0 0 400 0 400 400 0 400 0 0
400 0 400 200 0 200 0 0 200 0 200 -200 0 -200 0 0 -200 0 -200 -200 0 -200 0
0 200 0 200 -200 0 -200 0 0 -200z m-1190 -1600 l0 -200 -200 0 -200 0 0 200
0 200 200 0 200 0 0 -200z"/>
<path d="M6390 7400 l0 -600 -200 0 -200 0 0 400 0 400 -200 0 -200 0 0 -600
0 -600 -200 0 -200 0 0 200 0 200 -395 0 -395 0 0 -200 0 -200 200 0 200 0 0
-400 0 -400 -200 0 -200 0 0 200 0 200 -600 0 -600 0 0 -200 0 -200 -200 0
-200 0 0 200 0 200 -400 0 -400 0 0 200 0 200 400 0 400 0 0 200 0 200 -400 0
-400 0 0 -200 0 -200 -200 0 -200 0 0 -200 0 -200 -200 0 -200 0 0 400 0 400
-595 0 -595 0 0 -400 0 -400 195 0 195 0 0 -200 0 -200 -195 0 -195 0 0 -200
0 -200 195 0 195 0 0 -195 0 -195 -195 0 -195 0 0 -200 0 -200 395 0 395 0 0
395 0 395 200 0 200 0 0 -195 0 -195 200 0 200 0 0 195 0 195 200 0 200 0 0
-595 0 -595 -200 0 -200 0 0 200 0 200 -200 0 -200 0 0 -200 0 -200 -595 0
-595 0 0 -200 0 -200 795 0 795 0 0 -200 0 -200 800 0 800 0 0 -200 0 -200
600 0 600 0 0 200 0 200 200 0 200 0 0 -400 0 -400 -200 0 -200 0 0 -200 0
-200 -200 0 -200 0 0 200 0 200 -400 0 -400 0 0 -200 0 -200 400 0 400 0 0
-200 0 -200 200 0 200 0 0 200 0 200 200 0 200 0 0 -200 0 -200 195 0 195 0 0
1000 0 1000 -395 0 -395 0 0 200 0 200 200 0 200 0 0 200 0 200 -200 0 -200 0
0 395 0 395 395 0 395 0 0 400 0 400 200 0 200 0 0 200 0 200 200 0 200 0 0
-400 0 -400 400 0 400 0 0 400 0 400 200 0 200 0 0 -200 0 -200 200 0 200 0 0
-200 0 -200 -200 0 -200 0 0 -395 0 -395 -400 0 -400 0 0 195 0 195 -200 0
-200 0 0 -595 0 -595 -200 0 -200 0 0 -200 0 -200 200 0 200 0 0 200 0 200
200 0 200 0 0 200 0 200 400 0 400 0 0 -200 0 -200 -200 0 -200 0 0 -200 0
-200 -200 0 -200 0 0 -600 0 -600 -200 0 -200 0 0 400 0 400 -200 0 -200 0 0
-400 0 -400 200 0 200 0 0 -800 0 -800 -200 0 -200 0 0 -400 0 -400 200 0 200
0 0 400 0 400 200 0 200 0 0 -400 0 -400 200 0 200 0 0 400 0 400 200 0 200 0
0 -400 0 -400 200 0 200 0 0 200 0 200 400 0 400 0 0 -200 0 -200 200 0 200 0
0 200 0 200 -200 0 -200 0 0 400 0 400 400 0 400 0 0 -200 0 -200 400 0 400 0
0 200 0 200 -200 0 -200 0 0 400 0 400 -200 0 -200 0 0 -200 0 -200 -200 0
-200 0 0 200 0 200 -200 0 -200 0 0 200 0 200 200 0 200 0 0 200 0 200 200 0
200 0 0 200 0 200 200 0 200 0 0 -400 0 -400 200 0 200 0 0 400 0 400 -200 0
-200 0 0 200 0 200 -200 0 -200 0 0 -200 0 -200 -200 0 -200 0 0 -200 0 -200
-200 0 -200 0 0 400 0 400 -200 0 -200 0 0 600 0 600 -200 0 -200 0 0 395 0
395 200 0 200 0 0 200 0 200 -200 0 -200 0 0 200 0 200 400 0 400 0 0 -600 0
-600 200 0 200 0 0 200 0 200 200 0 200 0 0 200 0 200 200 0 200 0 0 -200 0
-200 200 0 200 0 0 600 0 600 -400 0 -400 0 0 -400 0 -400 -200 0 -200 0 0
200 0 200 -200 0 -200 0 0 200 0 200 -800 0 -800 0 0 600 0 600 -200 0 -200 0
0 -600z m-4390 -1600 l0 -200 -200 0 -200 0 0 200 0 200 200 0 200 0 0 -200z
m800 -400 l0 -200 -200 0 -200 0 0 200 0 200 200 0 200 0 0 -200z m1200 0 l0
-200 -400 0 -400 0 0 200 0 200 400 0 400 0 0 -200z m0 -990 l0 -400 -400 0
-400 0 0 -200 0 -200 -600 0 -600 0 0 200 0 200 400 0 400 0 0 200 0 200 -200
0 -200 0 0 200 0 200 800 0 800 0 0 -400z m400 -1000 l0 -200 -200 0 -200 0 0
200 0 200 200 0 200 0 0 -200z m3590 -800 l0 -600 -600 0 -600 0 0 600 0 600
600 0 600 0 0 -600z m0 -1400 l0 -400 -400 0 -400 0 0 400 0 400 400 0 400 0
0 -400z m-1200 -200 l0 -200 -200 0 -200 0 0 200 0 200 200 0 200 0 0 -200z"/>
<path d="M7190 2610 l0 -200 200 0 200 0 0 200 0 200 -200 0 -200 0 0 -200z"/>
<path d="M9590 5005 l0 -195 -200 0 -200 0 0 -200 0 -200 -400 0 -400 0 0
-200 0 -200 400 0 400 0 0 200 0 200 200 0 200 0 0 -200 0 -200 200 0 200 0 0
595 0 595 -200 0 -200 0 0 -195z"/>
<path d="M5190 4610 l0 -200 200 0 200 0 0 200 0 200 -200 0 -200 0 0 -200z"/>
<path d="M10 1410 l0 -1400 1395 0 1395 0 0 1400 0 1400 -1395 0 -1395 0 0
-1400z m2390 0 l0 -1000 -1000 0 -1000 0 0 1000 0 1000 1000 0 1000 0 0 -1000z"/>
<path d="M800 1410 l0 -600 600 0 600 0 0 600 0 600 -600 0 -600 0 0 -600z"/>
<path d="M3200 610 l0 -600 400 0 400 0 0 200 0 200 -200 0 -200 0 0 400 0
400 -200 0 -200 0 0 -600z"/>
<path d="M4000 1010 l0 -200 200 0 200 0 0 -200 0 -200 200 0 200 0 0 -200 0
-200 195 0 195 0 0 400 0 400 -195 0 -195 0 0 200 0 200 -400 0 -400 0 0 -200z"/>
<path d="M9590 210 l0 -200 200 0 200 0 0 200 0 200 -200 0 -200 0 0 -200z"/>
</g>
</svg>
